<svg xmlns="http://www.w3.org/2000/svg" display="none">
  <symbol id="default" viewBox="0 0 128 128">
    <svg width="128px">
      <g>
        <line style="fill:none;stroke-width:12;stroke-linecap:square;stroke-miterlimit:10;" x1="87.5" x2="40.5" y1="111" y2="64"/>
        <line style="fill:none;stroke-width:12;stroke-linecap:square;stroke-miterlimit:10;" x1="40.5" x2="87.5" y1="64" y2="17"/>
      </g>
    </svg>
  </symbol>
  <symbol id="select" viewBox="0 0 24 24">
    <svg>
      <path d="M16.9999 9.17019C16.8126 8.98394 16.5591 8.87939 16.2949 8.87939C16.0308 8.87939 15.7773 8.98394 15.5899 9.17019L11.9999 12.7102L8.45995 9.17019C8.27259 8.98394 8.01913 8.87939 7.75495 8.87939C7.49076 8.87939 7.23731 8.98394 7.04995 9.17019C6.95622 9.26315 6.88183 9.37375 6.83106 9.49561C6.78029 9.61747 6.75415 9.74818 6.75415 9.88019C6.75415 10.0122 6.78029 10.1429 6.83106 10.2648C6.88183 10.3866 6.95622 10.4972 7.04995 10.5902L11.2899 14.8302C11.3829 14.9239 11.4935 14.9983 11.6154 15.0491C11.7372 15.0998 11.8679 15.126 11.9999 15.126C12.132 15.126 12.2627 15.0998 12.3845 15.0491C12.5064 14.9983 12.617 14.9239 12.7099 14.8302L16.9999 10.5902C17.0937 10.4972 17.1681 10.3866 17.2188 10.2648C17.2696 10.1429 17.2957 10.0122 17.2957 9.88019C17.2957 9.74818 17.2696 9.61747 17.2188 9.49561C17.1681 9.37375 17.0937 9.26315 16.9999 9.17019Z" />
    </svg>
  </symbol>
</svg>

