<svg xmlns="http://www.w3.org/2000/svg" version="1.1" width="512px" height="512px" style="shape-rendering:geometricPrecision; text-rendering:geometricPrecision; image-rendering:optimizeQuality;">
<g><path style="opacity:1" fill="#424356" d="M 97.5,7.5 C 95.4998,9.67098 93.6665,12.0043 92,14.5C 91.3333,40.5 91.3333,66.5 92,92.5C 93.2997,95.4323 95.2997,97.7656 98,99.5C 104.926,95.4817 107.426,89.4817 105.5,81.5C 115.707,89.7184 118.54,100.052 114,112.5C 110.951,118.383 106.451,122.716 100.5,125.5C 97.9486,122.442 95.1153,119.442 92,116.5C 89.0197,111.552 87.5197,106.218 87.5,100.5C 77.9826,97.8223 74.3159,91.489 76.5,81.5C 76.5,71.1667 76.5,60.8333 76.5,50.5C 76.3335,38.4954 76.5001,26.4954 77,14.5C 78.5,11 81,8.5 84.5,7C 89.0204,6.18636 93.3537,6.35303 97.5,7.5 Z"/></g>
<g><path style="opacity:1" fill="#424355" d="M 225.5,7.5 C 222.777,10.0624 220.611,13.0624 219,16.5C 218.333,41.1667 218.333,65.8333 219,90.5C 223.239,101.828 227.905,102.161 233,91.5C 233.498,88.1832 233.665,84.8499 233.5,81.5C 245.599,91.9046 247.433,103.905 239,117.5C 235.74,120.54 232.24,123.206 228.5,125.5C 225.949,122.442 223.115,119.442 220,116.5C 216.768,111.639 215.268,106.306 215.5,100.5C 205.983,97.8223 202.316,91.489 204.5,81.5C 204.5,71.1667 204.5,60.8333 204.5,50.5C 204.333,38.4954 204.5,26.4954 205,14.5C 206.5,11 209,8.5 212.5,7C 217.02,6.18636 221.354,6.35303 225.5,7.5 Z"/></g>
<g><path style="opacity:1" fill="#414356" d="M 353.5,7.5 C 350.777,10.0624 348.611,13.0624 347,16.5C 346.333,40.8333 346.333,65.1667 347,89.5C 350.685,101.323 355.352,101.99 361,91.5C 361.498,88.1832 361.665,84.8499 361.5,81.5C 370.836,88.1995 374.003,97.1995 371,108.5C 368.833,116.496 364,122.162 356.5,125.5C 352.917,121.738 349.417,117.738 346,113.5C 344.369,109.312 343.536,104.979 343.5,100.5C 333.983,97.8223 330.316,91.489 332.5,81.5C 332.828,70.9865 332.494,60.6532 331.5,50.5C 331.106,38.1137 331.606,25.7804 333,13.5C 334.765,10.527 337.265,8.36036 340.5,7C 345.02,6.18636 349.354,6.35303 353.5,7.5 Z"/></g>
<g><path style="opacity:0.997" fill="#57595f" d="M 97.5,7.5 C 101.09,8.58783 103.59,10.9212 105,14.5C 105.5,26.4954 105.667,38.4954 105.5,50.5C 105.5,60.8333 105.5,71.1667 105.5,81.5C 107.426,89.4817 104.926,95.4817 98,99.5C 95.2997,97.7656 93.2997,95.4323 92,92.5C 91.3333,66.5 91.3333,40.5 92,14.5C 93.6665,12.0043 95.4998,9.67098 97.5,7.5 Z"/></g>
<g><path style="opacity:0.998" fill="#57595f" d="M 225.5,7.5 C 229.09,8.58783 231.59,10.9212 233,14.5C 233.5,26.4954 233.667,38.4954 233.5,50.5C 233.5,60.8333 233.5,71.1667 233.5,81.5C 233.665,84.8499 233.498,88.1832 233,91.5C 227.905,102.161 223.239,101.828 219,90.5C 218.333,65.8333 218.333,41.1667 219,16.5C 220.611,13.0624 222.777,10.0624 225.5,7.5 Z"/></g>
<g><path style="opacity:0.997" fill="#57595f" d="M 353.5,7.5 C 357.09,8.58783 359.59,10.9212 361,14.5C 361.5,26.4954 361.667,38.4954 361.5,50.5C 361.5,60.8333 361.5,71.1667 361.5,81.5C 361.665,84.8499 361.498,88.1832 361,91.5C 355.352,101.99 350.685,101.323 347,89.5C 346.333,65.1667 346.333,40.8333 347,16.5C 348.611,13.0624 350.777,10.0624 353.5,7.5 Z"/></g>
<g><path style="opacity:1" fill="#d63423" d="M 26.5,51.5 C 32.5092,51.3338 38.5092,51.5005 44.5,52C 32.236,55.9304 24.4026,64.0971 21,76.5C 20.5,108.165 20.3334,139.832 20.5,171.5C 13.5,171.5 6.5,171.5 -0.5,171.5C -0.5,139.833 -0.5,108.167 -0.5,76.5C 3.69018,62.9766 12.6902,54.6433 26.5,51.5 Z"/></g>
<g><path style="opacity:1" fill="#e9473b" d="M 26.5,51.5 C 42.9916,50.5035 59.6583,50.1702 76.5,50.5C 76.5,60.8333 76.5,71.1667 76.5,81.5C 65.0894,90.2758 62.5894,101.276 69,114.5C 76.6967,126.206 87.1967,129.872 100.5,125.5C 106.451,122.716 110.951,118.383 114,112.5C 118.54,100.052 115.707,89.7184 105.5,81.5C 105.5,71.1667 105.5,60.8333 105.5,50.5C 138.5,50.5 171.5,50.5 204.5,50.5C 204.5,60.8333 204.5,71.1667 204.5,81.5C 192.534,91.1323 190.367,102.799 198,116.5C 206.205,126.292 216.372,129.292 228.5,125.5C 232.24,123.206 235.74,120.54 239,117.5C 247.433,103.905 245.599,91.9046 233.5,81.5C 233.5,71.1667 233.5,60.8333 233.5,50.5C 266.167,50.5 298.833,50.5 331.5,50.5C 332.494,60.6532 332.828,70.9865 332.5,81.5C 323.654,87.8444 320.154,96.511 322,107.5C 328.08,123.956 339.58,129.956 356.5,125.5C 364,122.162 368.833,116.496 371,108.5C 374.003,97.1995 370.836,88.1995 361.5,81.5C 361.5,71.1667 361.5,60.8333 361.5,50.5C 383.169,50.3334 404.836,50.5 426.5,51C 432.474,52.315 437.474,55.1483 441.5,59.5C 442.167,60.8333 443.167,61.8333 444.5,62.5C 449.868,67.5816 452.535,73.9149 452.5,81.5C 452.5,111.5 452.5,141.5 452.5,171.5C 308.5,171.5 164.5,171.5 20.5,171.5C 20.3334,139.832 20.5,108.165 21,76.5C 24.4026,64.0971 32.236,55.9304 44.5,52C 38.5092,51.5005 32.5092,51.3338 26.5,51.5 Z"/></g>
<g><path style="opacity:0.055" fill="#d49691" d="M 441.5,59.5 C 443.5,59.5 444.5,60.5 444.5,62.5C 443.167,61.8333 442.167,60.8333 441.5,59.5 Z"/></g>
<g><path style="opacity:1" fill="#323242" d="M 76.5,81.5 C 74.3159,91.489 77.9826,97.8223 87.5,100.5C 87.5197,106.218 89.0197,111.552 92,116.5C 95.1153,119.442 97.9486,122.442 100.5,125.5C 87.1967,129.872 76.6967,126.206 69,114.5C 62.5894,101.276 65.0894,90.2758 76.5,81.5 Z"/></g>
<g><path style="opacity:1" fill="#323242" d="M 204.5,81.5 C 202.316,91.489 205.983,97.8223 215.5,100.5C 215.268,106.306 216.768,111.639 220,116.5C 223.115,119.442 225.949,122.442 228.5,125.5C 216.372,129.292 206.205,126.292 198,116.5C 190.367,102.799 192.534,91.1323 204.5,81.5 Z"/></g>
<g><path style="opacity:1" fill="#323242" d="M 332.5,81.5 C 330.316,91.489 333.983,97.8223 343.5,100.5C 343.536,104.979 344.369,109.312 346,113.5C 349.417,117.738 352.917,121.738 356.5,125.5C 339.58,129.956 328.08,123.956 322,107.5C 320.154,96.511 323.654,87.8444 332.5,81.5 Z"/></g>
<g><path style="opacity:1" fill="#a9a8a8" d="M 452.5,81.5 C 459.817,127.408 467.151,173.408 474.5,219.5C 473.667,303.999 473.167,388.666 473,473.5C 470.962,488.874 462.462,498.708 447.5,503C 441.319,503.819 435.319,503.653 429.5,502.5C 441.093,498.066 448.593,489.733 452,477.5C 452.5,385.167 452.667,292.834 452.5,200.5C 452.5,190.833 452.5,181.167 452.5,171.5C 452.5,141.5 452.5,111.5 452.5,81.5 Z"/></g>
<g><path style="opacity:1" fill="#dd6464" d="M -0.5,171.5 C 6.5,171.5 13.5,171.5 20.5,171.5C 20.5,181.167 20.5,190.833 20.5,200.5C 13.5,200.5 6.5,200.5 -0.5,200.5C -0.5,190.833 -0.5,181.167 -0.5,171.5 Z"/></g>
<g><path style="opacity:1" fill="#f67c79" d="M 20.5,171.5 C 164.5,171.5 308.5,171.5 452.5,171.5C 452.5,181.167 452.5,190.833 452.5,200.5C 308.5,200.5 164.5,200.5 20.5,200.5C 20.5,190.833 20.5,181.167 20.5,171.5 Z"/></g>
<g><path style="opacity:1" fill="#cccbca" d="M -0.5,200.5 C 6.5,200.5 13.5,200.5 20.5,200.5C 20.3333,293.167 20.5,385.834 21,478.5C 25.9327,492.861 35.766,501.528 50.5,504.5C 42.4931,504.666 34.4931,504.5 26.5,504C 12.759,500.423 3.759,491.923 -0.5,478.5C -0.5,385.833 -0.5,293.167 -0.5,200.5 Z"/></g>
<g><path style="opacity:0.999" fill="#e5e5e5" d="M 20.5,200.5 C 164.5,200.5 308.5,200.5 452.5,200.5C 452.667,292.834 452.5,385.167 452,477.5C 448.593,489.733 441.093,498.066 429.5,502.5C 425.663,502.931 421.997,503.598 418.5,504.5C 295.833,504.5 173.167,504.5 50.5,504.5C 35.766,501.528 25.9327,492.861 21,478.5C 20.5,385.834 20.3333,293.167 20.5,200.5 Z"/></g>
<g><path style="opacity:0.979" fill="#b9b9b9" d="M 474.5,219.5 C 486.664,300.993 498.998,382.326 511.5,463.5C 511.5,469.167 511.5,474.833 511.5,480.5C 507.683,491.816 500.016,499.316 488.5,503C 465.219,504.459 441.886,504.959 418.5,504.5C 421.997,503.598 425.663,502.931 429.5,502.5C 435.319,503.653 441.319,503.819 447.5,503C 462.462,498.708 470.962,488.874 473,473.5C 473.167,388.666 473.667,303.999 474.5,219.5 Z"/></g>
<g><path style="opacity:1" fill="#5c5e64" d="M 139.5,247.5 C 149.506,247.334 159.506,247.5 169.5,248C 175.059,249.458 176.892,252.958 175,258.5C 173.891,260.815 172.057,262.315 169.5,263C 159.833,263.667 150.167,263.667 140.5,263C 135.776,260.565 134.276,256.731 136,251.5C 137.376,250.295 138.542,248.962 139.5,247.5 Z"/></g>
<g><path style="opacity:1" fill="#5c5e64" d="M 210.5,247.5 C 220.839,247.334 231.172,247.5 241.5,248C 247.21,251.757 247.876,256.257 243.5,261.5C 242.205,262.098 240.872,262.598 239.5,263C 230.167,263.667 220.833,263.667 211.5,263C 203.867,258.354 203.534,253.187 210.5,247.5 Z"/></g>
<g><path style="opacity:1" fill="#5c5e64" d="M 281.5,247.5 C 291.839,247.334 302.172,247.5 312.5,248C 319.656,254.065 318.989,259.065 310.5,263C 301.167,263.667 291.833,263.667 282.5,263C 274.856,258.304 274.523,253.137 281.5,247.5 Z"/></g>
<g><path style="opacity:1" fill="#5c5e64" d="M 352.5,247.5 C 362.172,247.334 371.839,247.5 381.5,248C 387.019,249.504 389.186,253.004 388,258.5C 386.363,260.81 384.196,262.31 381.5,263C 371.833,263.667 362.167,263.667 352.5,263C 345.901,257.788 345.901,252.621 352.5,247.5 Z"/></g>
<g><path style="opacity:1" fill="#585a60" d="M 68.5,310.5 C 79.1719,310.333 89.8385,310.5 100.5,311C 104.212,313.513 105.378,317.013 104,321.5C 102.681,323.487 100.848,324.654 98.5,325C 88.5,325.667 78.5,325.667 68.5,325C 63.2353,320.076 63.2353,315.242 68.5,310.5 Z"/></g>
<g><path style="opacity:1" fill="#585a60" d="M 139.5,310.5 C 150.172,310.333 160.839,310.5 171.5,311C 175.212,313.513 176.378,317.013 175,321.5C 173.681,323.487 171.848,324.654 169.5,325C 159.5,325.667 149.5,325.667 139.5,325C 134.235,320.076 134.235,315.242 139.5,310.5 Z"/></g>
<g><path style="opacity:1" fill="#595b61" d="M 209.5,310.5 C 220.505,310.333 231.505,310.5 242.5,311C 247.986,316.081 247.653,320.748 241.5,325C 231.167,325.667 220.833,325.667 210.5,325C 204.335,320.524 204.001,315.691 209.5,310.5 Z"/></g>
<g><path style="opacity:1" fill="#595b61" d="M 280.5,310.5 C 291.505,310.333 302.505,310.5 313.5,311C 318.829,316.034 318.496,320.701 312.5,325C 302.167,325.667 291.833,325.667 281.5,325C 275.438,320.535 275.105,315.702 280.5,310.5 Z"/></g>
<g><path style="opacity:1" fill="#595b61" d="M 351.5,310.5 C 362.505,310.333 373.505,310.5 384.5,311C 389.917,316.021 389.584,320.688 383.5,325C 373.167,325.667 362.833,325.667 352.5,325C 346.292,320.58 345.958,315.747 351.5,310.5 Z"/></g>
<g><path style="opacity:1" fill="#585a60" d="M 68.5,372.5 C 79.1719,372.333 89.8385,372.5 100.5,373C 105.812,377.761 105.812,382.428 100.5,387C 89.8333,387.667 79.1667,387.667 68.5,387C 63.2029,382.215 63.2029,377.382 68.5,372.5 Z"/></g>
<g><path style="opacity:1" fill="#585a60" d="M 139.5,372.5 C 150.172,372.333 160.839,372.5 171.5,373C 176.833,377.667 176.833,382.333 171.5,387C 160.833,387.667 150.167,387.667 139.5,387C 136.634,385.607 135.301,383.274 135.5,380C 135.603,378.439 135.937,376.939 136.5,375.5C 137.77,374.712 138.77,373.712 139.5,372.5 Z"/></g>
<g><path style="opacity:1" fill="#595b61" d="M 210.5,372.5 C 220.839,372.334 231.172,372.5 241.5,373C 247.84,377.084 248.173,381.75 242.5,387C 231.833,387.667 221.167,387.667 210.5,387C 203.902,382.129 203.902,377.295 210.5,372.5 Z"/></g>
<g><path style="opacity:1" fill="#595b61" d="M 281.5,372.5 C 291.839,372.334 302.172,372.5 312.5,373C 318.821,377.128 319.154,381.795 313.5,387C 302.5,387.667 291.5,387.667 280.5,387C 275.068,381.761 275.401,376.928 281.5,372.5 Z"/></g>
<g><path style="opacity:1" fill="#595b61" d="M 351.5,372.5 C 362.172,372.333 372.839,372.5 383.5,373C 390.017,377.622 390.017,382.288 383.5,387C 372.833,387.667 362.167,387.667 351.5,387C 346.202,382.092 346.202,377.258 351.5,372.5 Z"/></g>
<g><path style="opacity:1" fill="#5c5e64" d="M 69.5,434.5 C 80.2449,434.071 90.9115,434.571 101.5,436C 104.394,438.909 105.227,442.409 104,446.5C 102.681,448.487 100.848,449.654 98.5,450C 88.8333,450.667 79.1667,450.667 69.5,450C 64.9315,447.459 63.4315,443.625 65,438.5C 66.3968,436.93 67.8968,435.596 69.5,434.5 Z"/></g>
<g><path style="opacity:1" fill="#5c5e64" d="M 141.5,434.5 C 150.839,434.334 160.173,434.5 169.5,435C 175.059,436.458 176.892,439.958 175,445.5C 173.891,447.815 172.057,449.315 169.5,450C 159.833,450.667 150.167,450.667 140.5,450C 135.776,447.565 134.276,443.731 136,438.5C 137.5,436.531 139.333,435.198 141.5,434.5 Z"/></g>
<g><path style="opacity:1" fill="#5c5e64" d="M 210.5,434.5 C 220.839,434.334 231.172,434.5 241.5,435C 247.21,438.757 247.876,443.257 243.5,448.5C 242.205,449.098 240.872,449.598 239.5,450C 230.167,450.667 220.833,450.667 211.5,450C 203.867,445.354 203.534,440.187 210.5,434.5 Z"/></g>
<g><path style="opacity:1" fill="#5c5e64" d="M 281.5,434.5 C 291.839,434.334 302.172,434.5 312.5,435C 318.218,438.804 318.885,443.304 314.5,448.5C 313.205,449.098 311.872,449.598 310.5,450C 300.833,450.667 291.167,450.667 281.5,450C 274.901,444.788 274.901,439.621 281.5,434.5 Z"/></g>
</svg>
